<?xml version="1.0" encoding="UTF-8"?>
<svg id="_レイヤー_2" data-name="レイヤー 2" xmlns="http://www.w3.org/2000/svg" viewBox="0 0 269.02 233.83">
  <defs>
    <style>
      .cls-1 {
        fill: #e6b566;
      }

      .cls-2 {
        fill: #f15a24;
      }

      .cls-3 {
        fill: none;
        stroke: #0c5920;
        stroke-miterlimit: 10;
        stroke-width: 7px;
      }

      .cls-4 {
        fill: #0c5920;
      }
    </style>
  </defs>
  <g id="_レイヤー_1-2" data-name="レイヤー 1">
    <circle class="cls-2" cx="109.78" cy="41.13" r="27"/>
    <ellipse class="cls-1" cx="132.78" cy="103.13" rx="76" ry="27"/>
    <path class="cls-1" d="m213.78,115.13c0,17.07-35.95,34.91-84,34.91s-80-18.84-80-35.91c0-1.68.31-3.29.92-4.81,5.45,15.65,34.84,31.72,78.08,31.72s77.58-15.3,83.94-30.81c.7,1.56,1.06,3.19,1.06,4.9Z"/>
    <path class="cls-1" d="m215.78,132.13c0,17.46-37.85,37.62-87,37.62s-81-20.16-81-37.62c0-1.7.3-3.32.9-4.85,5.49,15.87,35.75,31.47,80.1,31.47s77.36-15.85,85.95-31.43c.7,1.52,1.05,3.12,1.05,4.81Z"/>
    <path class="cls-1" d="m218.78,148.13c0,18.23-35.09,40-87,40s-86-21.77-86-40c0-1.17.14-2.3.42-3.39,6.93,16.48,38.84,33.39,84.58,33.39,48.3,0,82.04-18.85,86.49-36.15,1,1.9,1.51,3.95,1.51,6.15Z"/>
    <ellipse class="cls-2" cx="57.78" cy="48.13" rx="16" ry="3"/>
    <ellipse class="cls-2" cx="57.28" cy="63.13" rx="21.5" ry="3"/>
    <ellipse class="cls-2" cx="45.28" cy="79.13" rx="27.5" ry="3"/>
    <ellipse class="cls-2" cx="32.78" cy="94.13" rx="22" ry="3"/>
    <ellipse class="cls-2" cx="29.78" cy="109.13" rx="15" ry="3"/>
    <path class="cls-3" d="m224.78,136.13c4-47-30-96-30-96"/>
    <path class="cls-4" d="m232.9,43.51c.48,3.13-8.55,1.73-19.21,1.97-10.67.24-20.29-2.61-20.36-5.51s7.27-6.89,19.34-7.45c13.38-.62,19.79,8.13,20.23,10.99Z"/>
    <path class="cls-4" d="m197.16.02c3.13-.48,1.73,8.55,1.97,19.21.24,10.67-2.61,20.29-5.51,20.36s-6.89-7.27-7.45-19.34C185.54,6.86,194.29.45,197.16.02Z"/>
    <path class="cls-4" d="m153.66,35.76c-.48-3.13,8.55-1.73,19.21-1.97,10.67-.24,20.29,2.61,20.36,5.51.07,2.9-7.27,6.89-19.34,7.45-13.38.62-19.79-8.13-20.23-10.99Z"/>
    <path class="cls-4" d="m189.4,79.25c-3.13.48-1.73-8.55-1.97-19.21-.24-10.67,2.61-20.29,5.51-20.36,2.9-.07,6.89,7.27,7.45,19.34.62,13.38-8.13,19.79-10.99,20.23Z"/>
    <g>
      <path d="m.77,173.99c-.77-1.92-.96-3.82-.59-5.67.37-1.85,1.35-3.49,2.89-4.94,2.66-2.5,5.84-4.03,9.47-4.76,3.63-.73,7.41-.46,11.41.68,4,1.14,7.86,3.27,11.8,6.37,1.02.8,2.07,1.71,3.15,2.73,1.08,1.02,2.02,2.01,2.82,2.98.53.61.58,1.23.15,1.86-.36.51-.92.84-1.69.97-.77.13-1.47-.02-2.08-.46-.19-.14-.32-.25-.4-.33-1.05-1.12-1.95-2.05-2.72-2.81-.77-.75-1.62-1.5-2.55-2.24-2.88-2.29-5.73-3.77-8.68-4.43-2.95-.66-5.75-.63-8.41.18-2.66.8-5,2.17-6.97,4.17-1.43,1.45-2.15,2.97-2.12,4.55.03,1.58.71,3,2.03,4.22,1.5,1.38,3.23,2.12,5.16,2.21,1.93.09,4.23-.51,6.87-1.81,2.64-1.3,5.85-3.39,9.58-6.31.56-.41,1.12-.55,1.68-.41.56.14,1.19.48,1.89,1.01,1.64,1.26,2.15,2.31,1.5,3.2-.11.15-.29.32-.53.5-2,1.42-4.12,3.05-6.35,4.89-2.23,1.85-3.81,3.33-4.7,4.5-.79,1.03-1.16,1.93-1.1,2.72.06.78.52,1.51,1.39,2.15.84.62,1.8,1,2.87,1.13,1.06.13,2.54.09,4.4-.14.51-.06.95.04,1.35.31.34.23.53.53.57.91.04.37-.08.77-.36,1.19-.52.78-1.19,1.23-2,1.35-2.11.29-4.03.27-5.73-.02-1.7-.3-3.48-1.13-5.3-2.5-1.87-1.42-3.07-2.99-3.58-4.65-.51-1.66-.33-3.3.53-4.89-4.23,1.32-8.29.31-11.9-3.05-1.72-1.61-2.98-3.4-3.75-5.32Z"/>
      <path d="m46.08,199.95c.07.37-.02.77-.26,1.21-.46.84-1.08,1.35-1.87,1.52-1.82.44-3.66.6-5.5.47-1.84-.13-3.67-.76-5.47-1.89-2.47-1.55-3.75-3.57-3.82-5.94-.08-2.37.79-4.8,2.52-7.31,1.67-2.41,3.98-4.86,6.86-7.43,2.88-2.57,5.78-4.49,8.68-5.82,2.9-1.33,5.28-1.42,7.25-.25,1.12.66,1.73,1.63,1.86,2.93.12,1.3-.29,2.82-1.25,4.56-1.39,2.49-3.81,4.95-7.4,7.23-3.59,2.27-7.87,4.07-12.91,5.22-.35.95-.41,1.74-.2,2.37.21.63.67,1.17,1.39,1.62,1.13.7,2.27,1.06,3.42,1.09,1.14.02,2.73-.17,4.72-.61.49-.1.95-.04,1.36.19.36.2.57.48.64.85Zm2.37-21.43c-1.75,1.26-3.68,2.96-5.82,5.1-2.14,2.14-3.99,4.32-5.51,6.56,3.38-1.16,6.31-2.66,8.83-4.43,2.52-1.77,4.34-3.69,5.52-5.7.93-1.57,1.06-2.55.39-2.95-.55-.33-1.67.15-3.42,1.41Z"/>
      <path d="m66.54,206.38c.08.37.03.78-.15,1.22-.43,1.07-1.11,1.54-2.02,1.39-1.92-.25-3.94-.8-6.03-1.66-1.38,1.59-3.14,2.57-5.29,2.88-2.16.32-4.29-.06-6.36-1.13-1.75-.9-3.06-2.01-3.94-3.29-.88-1.28-1.34-2.6-1.38-3.96-.04-1.35.28-2.61.96-3.77.92-1.58,2.13-2.75,3.61-3.55,1.48-.8,3.09-1.17,4.82-1.15,1.73.03,3.41.46,5.05,1.29,2.02,1.02,3.38,2.37,4.11,4.1.73,1.73.85,3.49.31,5.27,1.35.53,3.02,1,5.02,1.38.24.05.45.11.62.18.37.15.59.41.67.78Zm-14.96-.14c.95-.23,1.79-.82,2.53-1.77-.65-.88-1.03-1.8-1.12-2.76-.09-.96.07-1.85.49-2.66.17-.34.39-.66.64-.97-.07-.03-.14-.07-.2-.1-1.09-.55-2.19-.61-3.35-.17-1.15.44-2.13,1.39-2.93,2.86-.63,1.16-.81,2.21-.53,3.15.28.94.84,1.62,1.66,2.05.91.47,1.85.59,2.8.36Z"/>
      <path d="m87.3,216.43c.15.34.16.75.03,1.24-.24.93-.72,1.57-1.43,1.93-1.73.86-3.46,1.46-5.18,1.81-1.72.35-3.55.22-5.46-.4-1.57-.51-2.63-1.24-3.19-2.19-.56-.94-.61-2.05-.16-3.32.22-.63.83-1.69,1.82-3.18.88-1.3,1.41-2.22,1.6-2.76.13-.36.03-.6-.29-.71-.37-.13-1.03.06-2,.57-.96.51-2.02,1.25-3.19,2.23-1.16.98-2.23,2.06-3.21,3.25-1.25,1.57-3.03,1.92-5.29,1-.9-.37-1.39-.86-1.47-1.46-.08-.6.14-1.51.67-2.75.3-.71.56-1.26.77-1.67.39-.88.78-1.75,1.18-2.63,1.45-3.4,3.42-6.75,5.81-10.1,2.39-3.35,4.88-5.96,7.43-7.89,2.56-1.93,4.85-2.53,7-1.78,1.15.4,1.94,1.16,2.37,2.29.43,1.14.43,2.42-.03,3.87-.73,2.31-2.27,4.47-4.7,6.41-2.43,1.93-6.07,3.91-11.1,5.69-.54,1.13-1.05,2.31-1.53,3.54,1.7-1.53,3.33-2.68,4.92-3.47,1.59-.78,3.01-1.25,4.3-1.39,1.28-.14,2.38-.07,3.31.23,1.81.59,2.5,1.61,2.04,3.1-.28.89-1.08,2.42-2.46,4.55-1.18,1.82-1.89,3.04-2.09,3.68-.29.91,0,1.51.87,1.78.6.19,1.41.13,2.4-.19,1-.32,2.37-.91,4.09-1.81.45-.22.89-.28,1.34-.16.39.1.65.32.8.66Zm-8.69-24.52c-.99.95-2.13,2.31-3.41,4.07-1.29,1.76-2.56,3.72-3.81,5.89,2.34-.97,4.4-2.26,6.18-3.81,1.78-1.56,2.92-3.15,3.47-4.74.25-.73.35-1.31.31-1.76-.05-.45-.24-.73-.57-.85-.46-.16-1.18.24-2.17,1.19Z"/>
      <path d="m83.37,221.74c-.8-1.34-.95-2.86-.46-4.54.53-1.84,1.59-3.43,3.13-4.78,1.54-1.36,3.32-2.31,5.33-2.88,2.02-.57,3.99-.65,5.96-.22.63.14,1.03.32,1.2.57.17.24.28.64.32,1.19.57.02,1.18.09,1.85.22.69.13,1.2.37,1.53.73.32.35.44.79.35,1.31-.1.54-.42,1.46-.96,2.75-.59,1.38-1.1,2.71-1.53,3.98-.43,1.28-.8,2.73-1.11,4.35-.17.9-.53,1.49-1.1,1.79-.56.3-1.4.33-2.5.11-1.07-.22-1.82-.59-2.25-1.09-.43-.5-.55-1.18-.35-2.05.06-.18.12-.37.17-.55-1.41,1.8-3.33,2.43-5.7,1.83-1.78-.45-3.08-1.36-3.88-2.7Zm9.23-1.2c.91-.75,1.9-2.24,2.94-4.47.54-1.12,1.08-2.25,1.61-3.37-1.2-.23-2.39-.11-3.58.37-1.19.48-2.24,1.21-3.15,2.23-.91,1.01-1.54,2.16-1.87,3.47-.18.7-.14,1.27.12,1.72.26.45.68.74,1.27.89.86.21,1.75-.07,2.66-.82Z"/>
      <path d="m149.63,213.47c-1.13,1.81-2.91,3.36-5.36,4.59-2.45,1.23-5.46,1.99-8.98,2.21-.63,2.9-1.29,5.79-1.98,8.68-.79,3.33-3.04,5-6.67,4.87-1.99-.07-3.8-.6-5.41-1.57-1.61-.97-2.83-2.39-3.66-4.25-.83-1.85-1.1-4.08-.85-6.66.46-4.85,1.84-8.87,3.96-12.11,2.13-3.24,4.71-5.62,7.78-7.21,3.06-1.59,6.31-2.41,9.88-2.52,2.52-.07,4.67.21,6.49.87,1.82.67,3.25,1.62,4.3,2.88,1.05,1.26,1.68,2.74,1.85,4.43.21,2.03-.22,3.96-1.35,5.77Zm-4.94-4.92c-.1-1.58-.8-2.83-2.06-3.76-1.26-.93-3.12-1.34-5.62-1.29-2.83.05-5.29.81-7.46,2.32-2.17,1.51-3.94,3.59-5.29,6.29-1.35,2.7-2.19,5.81-2.43,9.36-.1,1.48,0,2.81.32,3.99.32,1.17.77,2.1,1.35,2.77.58.67,1.16,1.02,1.74,1.04.8.04,1.44-.77,1.9-2.41.6-2.25,1.18-4.5,1.74-6.75-1.18-.18-1.69-.26-1.54-.23-.9-.15-1.48-.4-1.74-.74-.26-.34-.37-.76-.35-1.26.03-.53.23-.94.62-1.23.39-.29.9-.43,1.55-.41.3.01.52.03.67.06.71.12,1.26.19,1.64.22.43-1.86,1.02-4.36,1.75-7.49.18-.81.58-1.39,1.18-1.73.61-.34,1.31-.52,2.13-.52.92,0,1.59.13,2.01.43.41.29.63.76.64,1.41,0,.38-.01.7-.07.94-.42,2.34-.86,4.67-1.32,7.01,6.1-.72,8.94-3.54,8.63-8Z"/>
      <path d="m155.58,227.33c-1.29-.94-2.02-2.29-2.2-4.03-.2-1.91.17-3.77,1.08-5.61.91-1.83,2.19-3.38,3.83-4.67,1.65-1.29,3.44-2.09,5.42-2.44.63-.11,1.07-.09,1.33.07.25.16.5.49.74.98.59-.21,1.22-.38,1.88-.51,1.41-.28,2.21-.02,2.38.8.1.49.14,1.71.08,3.66-.12,2.84-.1,4.8.12,5.86.07.35.24.61.52.78.27.16.6.21.97.13.59-.12,1.23-.56,1.93-1.31.7-.76,1.6-1.94,2.67-3.55.28-.41.65-.67,1.09-.78.39-.1.73-.03,1.02.19.3.22.51.58.63,1.07.24.93.13,1.73-.32,2.38-.95,1.5-2.06,2.82-3.3,3.97-1.25,1.14-2.56,1.85-3.91,2.13-1.04.21-2.05.13-3.01-.24-.96-.37-1.74-.98-2.34-1.83-1.27,2.27-3.19,3.61-5.7,3.96-1.97.28-3.62-.07-4.91-1Zm7.88-4.07c.52-.72.83-1.61.93-2.67.19-2.27.37-4.54.52-6.81-1.23.24-2.3.81-3.23,1.69-.93.89-1.63,1.97-2.09,3.25-.46,1.28-.61,2.58-.42,3.91.1.74.37,1.26.81,1.56.44.3,1,.4,1.69.3.68-.1,1.29-.51,1.81-1.23Z"/>
      <path d="m177.39,223.68c-.71-.82-1.29-2.26-1.77-4.32-.71-3.04-.83-6.05-.43-9.04.09-.74.39-1.34.9-1.8.5-.46,1.28-.83,2.33-1.1.57-.15.98-.2,1.24-.15.26.05.43.24.52.57.1.37.12,1.26.04,2.68-.03,1.01-.05,1.88-.04,2.62.01.74.09,1.64.25,2.69.45-2.26,1.08-4.17,1.91-5.75.82-1.58,1.7-2.81,2.65-3.68.95-.87,1.88-1.46,2.8-1.76,1.81-.6,2.97-.18,3.49,1.29.31.88.56,2.59.71,5.12.12,2.16.28,3.57.49,4.21.31.91.89,1.22,1.76.92.6-.21,1.21-.73,1.83-1.58.62-.85,1.38-2.14,2.25-3.88.23-.45.56-.75.99-.92.38-.15.72-.13,1.05.06.32.18.58.51.76.98.35.89.35,1.7-.02,2.41-.81,1.68-1.82,3.18-3.04,4.49-1.22,1.31-2.81,2.3-4.74,2.93-1.56.52-2.86.55-3.87.12-1.01-.43-1.7-1.3-2.09-2.58-.19-.64-.33-1.86-.42-3.64-.06-1.56-.18-2.62-.35-3.17-.11-.37-.33-.5-.65-.4-.38.11-.79.66-1.25,1.63-.46.97-.87,2.2-1.24,3.67-.37,1.48-.6,2.98-.67,4.52-.04,1.18-.24,2.02-.59,2.52-.35.5-1.01.88-1.97,1.12-1.19.3-2.14.03-2.84-.79Z"/>
      <path d="m200.91,215.86c-2.11-.62-3.52-1.98-4.27-4.03-.67-1.83-.79-3.59-.4-5.31.39-1.71,1.14-3.21,2.26-4.51,1.11-1.3,2.42-2.27,3.94-2.93,1.5-.65,2.81-.81,3.96-.48,1.15.33,2,1.04,2.52,2.15.43.91.53,1.8.31,2.68-.22.87-.77,1.5-1.61,1.88-.54.24-1.01.33-1.43.28-.41-.06-.69-.26-.85-.61-.07-.15-.12-.34-.15-.56-.03-.22-.05-.38-.06-.48,0-.39-.07-.73-.2-1.02-.13-.29-.31-.47-.56-.54-.25-.07-.54-.04-.87.1-.64.28-1.14.75-1.51,1.44-.37.69-.57,1.49-.59,2.4-.02.92.15,1.84.53,2.78,1.04,2.58,3.05,3.29,6.02,2.01,1.2-.52,2.36-1.4,3.45-2.63,1.09-1.23,2.01-2.77,2.72-4.59.19-.47.49-.81.91-1.02.36-.18.72-.2,1.06-.05.34.15.62.45.85.9.41.81.49,1.61.2,2.4-.72,1.92-1.88,3.69-3.48,5.27-1.6,1.58-3.34,2.77-5.16,3.55-2.93,1.25-5.49,1.54-7.6.92Z"/>
      <path d="m216.72,209.38c-1.55-.44-2.7-1.47-3.45-3.05-.83-1.73-1.09-3.62-.83-5.66.26-2.04.98-3.94,2.13-5.73,1.16-1.78,2.61-3.17,4.41-4.19.57-.33,1.01-.46,1.3-.39.3.06.64.29,1.04.67.5-.4,1.05-.78,1.65-1.14,1.27-.76,2.12-.8,2.56-.08.26.43.7,1.57,1.29,3.43.82,2.73,1.49,4.57,2.05,5.49.19.31.44.49.76.55.32.06.64-.01.98-.21.52-.32,1-.96,1.43-1.92.42-.96.91-2.4,1.41-4.31.14-.49.4-.87.8-1.13.34-.23.7-.29,1.05-.19.36.11.68.37.96.78.54.8.7,1.58.48,2.37-.43,1.76-1.05,3.4-1.88,4.93-.83,1.52-1.86,2.66-3.07,3.39-.93.56-1.93.84-2.98.83-1.05-.01-2.01-.32-2.86-.91-.47,2.58-1.87,4.52-4.17,5.72-1.8.94-3.5,1.19-5.05.74Zm6.23-6.57c.26-.86.26-1.81,0-2.85-.57-2.21-1.16-4.42-1.76-6.62-1.1.66-1.95,1.56-2.55,2.73-.6,1.16-.92,2.43-.94,3.79-.02,1.37.27,2.65.89,3.84.34.66.77,1.06,1.3,1.19.52.13,1.1.03,1.72-.3.62-.33,1.07-.93,1.33-1.79Z"/>
      <path d="m255.28,175.9c.37.05.73.26,1.07.64.64.71.91,1.48.79,2.29-.24,1.98-.7,3.79-1.36,5.39-.67,1.61-1.83,3.1-3.49,4.43-2.03,1.63-4,2.47-5.89,2.56-1.88.09-3.33-.6-4.36-2.01-.55-.76-.42-1.68.36-2.77.86-1.21,1.36-2.21,1.53-2.99.17-.78.02-1.46-.44-2.05-.27-.34-.56-.52-.88-.55-.32-.03-.61.07-.89.28-.67.52-1.13,1.45-1.39,2.82-.26,1.36-.33,2.9-.19,4.63.13,1.72.43,3.38.89,4.96.35,1.13.44,2,.27,2.6-.17.6-.68,1.19-1.54,1.77-.85.58-1.63.77-2.33.58-.7-.19-1.42-.71-2.17-1.57-.75-.86-1.72-2.21-2.91-4.04-2.01-3.1-3.68-6.61-5.11-10.47-1.43-3.86-2.19-7.4-2.33-10.63-.14-3.23.69-5.5,2.58-6.92,1.01-.76,2.11-1.02,3.32-.76,1.21.25,2.29.96,3.24,2.14,1.51,1.89,2.43,4.39,2.63,7.53.2,3.14-.27,7.33-1.68,12.56.64,1.08,1.33,2.16,2.08,3.25-.46-3.34-.33-6.1.4-8.33.73-2.23,1.72-3.84,3.02-4.86,1.2-.95,2.42-1.41,3.66-1.38,1.25.03,2.26.49,3.03,1.41.85,1.01,1.29,2.23,1.29,3.66,0,1.42-.57,3.18-1.79,5.22.5.43,1.14.6,1.91.49.77-.11,1.53-.46,2.28-1.07.79-.65,1.38-1.5,1.74-2.56.36-1.06.69-2.6.96-4.63.07-.51.29-.93.65-1.25.32-.28.66-.4,1.04-.35Zm-26.6-5.18c.22,1.37.71,3.08,1.44,5.14.73,2.06,1.64,4.22,2.73,6.47.54-2.52.66-4.97.39-7.34-.27-2.37-.94-4.22-1.96-5.56-.46-.61-.9-1.02-1.3-1.23-.4-.21-.75-.2-1.04.02-.41.3-.49,1.13-.26,2.5Z"/>
      <path d="m266.85,166.1c.38.01.76.19,1.12.54.63.59.98,1.31,1.03,2.16.09,1.4-.2,2.87-.89,4.39-.69,1.52-1.81,3.04-3.37,4.54-2.38,2.28-4.74,3.47-6.99,3.61-2.25.15-4.13-.71-5.65-2.5-1.08-1.26-1.72-2.73-1.96-4.42-.24-1.68-.04-3.37.58-5.07.63-1.71,1.66-3.25,3.12-4.66,1.3-1.26,2.62-2,3.99-2.21,1.37-.21,2.56.16,3.58,1.14,1.19,1.15,1.66,2.72,1.36,4.72-.31,2-1.63,4.66-4.06,7.85,1.33.27,2.71-.25,4.09-1.58.99-.96,1.65-1.92,1.95-2.88.31-.95.49-2.23.53-3.82.02-.54.2-.99.55-1.35.3-.31.64-.46,1.02-.45Zm-12.26,4.87c.1,1.31.64,2.51,1.63,3.59.02.02.03.04.05.05,1.19-1.55,1.95-2.97,2.28-4.22.33-1.25.18-2.2-.44-2.83-.32-.32-.69-.47-1.13-.43-.43.04-.86.26-1.27.65-.85.82-1.22,1.87-1.12,3.18Z"/>
    </g>
  </g>
</svg>